<svg xmlns="http://www.w3.org/2000/svg" width="79" height="28" viewBox="0 0 79 28" fill="none">
  <g clip-path="url(#clip0_205_588)">
    <path d="M9.10153 3.5H0.564453V23.9167L9.10153 3.5Z" fill="#4C4C4D"/>
    <path d="M15.1074 3.5H23.6334V23.9167L15.1074 3.5Z" fill="#4C4C4D"/>
    <path d="M12.1049 11.0249L17.5386 23.9167H13.9736L12.3496 19.8122H8.37305L12.1049 11.0249Z" fill="#4C4C4D"/>
    <path d="M37.5615 16.4827L38.5681 19.3692C38.6015 19.4415 38.6515 19.4749 38.7405 19.4749H40.676C40.7816 19.4749 40.7983 19.4248 40.7816 19.3191L36.7828 8.2126C36.7661 8.12362 36.7495 8.10693 36.6605 8.10693H34.2579C34.1911 8.10693 34.1522 8.15699 34.1522 8.22929C34.1188 8.81326 34.0688 8.99123 33.9965 9.16364L30.4315 19.3025C30.4148 19.4248 30.4537 19.4749 30.5538 19.4749H32.2835C32.3892 19.4749 32.4392 19.4415 32.4781 19.3358L33.4292 16.4827H37.5615ZM33.9798 14.5973C34.5026 13.0178 35.1922 10.9934 35.4703 9.83659H35.487C35.8318 11.049 36.6438 13.4516 37.0109 14.5973H33.9798Z" fill="#4C4C4D"/>
    <path d="M45.9231 19.6466C46.9632 19.6466 48.0699 19.4576 49.1934 18.9737C49.2824 18.9403 49.299 18.9014 49.299 18.818C49.2657 18.5065 49.2267 18.056 49.2267 17.7112V7.25538C49.2267 7.18864 49.2267 7.15527 49.1433 7.15527H47.2579C47.1856 7.15527 47.1523 7.18864 47.1523 7.27763V10.8204C46.8575 10.787 46.6517 10.7703 46.407 10.7703C43.3648 10.7703 41.4961 12.7781 41.4961 15.2863C41.4961 18.1951 43.4148 19.6466 45.9231 19.6466ZM47.1523 17.7112C46.8408 17.8113 46.496 17.8502 46.1456 17.8502C44.7663 17.8502 43.6373 17.0716 43.6373 15.1807C43.6373 13.5066 44.7997 12.5167 46.3403 12.5167C46.6517 12.5167 46.9242 12.55 47.1523 12.639V17.7112Z" fill="#4C4C4D"/>
    <path d="M55.312 10.7715C52.7147 10.7715 51.1074 12.7625 51.1074 15.2208C51.1074 17.4176 52.3866 19.6478 55.2731 19.6478C57.7146 19.6478 59.4276 17.8514 59.4276 15.1652C59.4276 12.7959 57.976 10.7715 55.312 10.7715ZM55.2063 12.5178C56.6746 12.5178 57.2975 13.7803 57.2975 15.2208C57.2975 17.0005 56.3798 17.8848 55.312 17.8848C53.9939 17.8848 53.2153 16.778 53.2153 15.1818C53.2153 13.5412 54.044 12.5178 55.2063 12.5178Z" fill="#4C4C4D"/>
    <path d="M61.3782 7.15527C61.3059 7.15527 61.2559 7.18864 61.2559 7.27763V19.1127C61.2559 19.1628 61.3059 19.2518 61.3782 19.2685C62.2069 19.5243 63.0745 19.6466 63.9699 19.6466C66.5338 19.6466 69.0254 18.056 69.0254 14.8525C69.0254 12.5333 67.4348 10.7703 64.9432 10.7703C64.3704 10.7703 63.8364 10.8593 63.3693 11.015L63.347 7.29431C63.347 7.17196 63.3136 7.15527 63.1913 7.15527H61.3782ZM66.8953 15.0639C66.8953 16.9826 65.5828 17.8836 64.1646 17.8836C63.8698 17.8836 63.6084 17.8669 63.3693 17.7946V12.7447C63.6418 12.639 63.9699 12.55 64.5761 12.55C65.9443 12.55 66.8953 13.4176 66.8953 15.0639Z" fill="#4C4C4D"/>
    <path d="M76.0622 15.6879C76.9076 15.6879 77.6028 15.6713 77.8419 15.6156C77.9309 15.599 77.9643 15.5656 77.981 15.4933C78.031 15.3042 78.0533 14.9093 78.0533 14.4255C78.0533 12.7792 77.0633 10.7715 74.505 10.7715C71.891 10.7715 70.4395 12.9016 70.4395 15.3042C70.4395 17.4343 71.5629 19.6478 74.7108 19.6478C75.8898 19.6478 76.6518 19.4587 77.308 19.1473C77.3748 19.1139 77.4081 19.0583 77.4081 18.9582V17.5177C77.4081 17.4343 77.3581 17.4176 77.308 17.451C76.6518 17.7291 75.9399 17.8681 75.1613 17.8681C73.3982 17.8681 72.5974 16.8948 72.5473 15.6879H76.0622ZM72.5473 14.1974C72.6863 13.3521 73.2202 12.4344 74.416 12.4344C75.7341 12.4344 76.0789 13.5412 76.0789 14.0417C76.0789 14.0584 76.0789 14.1307 76.0789 14.1808C76.0066 14.1974 75.7841 14.1974 75.1279 14.1974H72.5473Z" fill="#4C4C4D"/>
  </g>
  <defs>
    <clipPath id="clip0_205_588">
      <rect width="77.5833" height="28" fill="white" transform="translate(0.564453)"/>
    </clipPath>
  </defs>
</svg>