<svg xmlns="http://www.w3.org/2000/svg" width="65" height="28" viewBox="0 0 65 28" fill="none">
  <g clip-path="url(#clip0_205_583)">
    <path fill-rule="evenodd" clip-rule="evenodd" d="M40.046 22.0533C36.3339 24.7894 30.9535 26.2492 26.321 26.2492C19.8256 26.2492 13.978 23.8468 9.55413 19.8511C9.20656 19.5369 9.51798 19.1087 9.93507 19.3534C14.7093 22.1312 20.6125 23.8023 26.7103 23.8023C30.8228 23.8023 35.3468 22.9514 39.5066 21.1858C40.135 20.9188 40.6605 21.5973 40.046 22.0533Z" fill="#4C4C4D"/>
    <path fill-rule="evenodd" clip-rule="evenodd" d="M41.5893 20.2877C41.1166 19.6815 38.4528 20.0013 37.2571 20.1431C36.8929 20.1876 36.8373 19.8706 37.1654 19.6426C39.287 18.1494 42.7682 18.5804 43.1742 19.0809C43.5802 19.5842 43.0685 23.0738 41.0749 24.7394C40.769 24.9952 40.477 24.8589 40.6133 24.5197C41.061 23.4019 42.0648 20.8966 41.5893 20.2877Z" fill="#4C4C4D"/>
    <path fill-rule="evenodd" clip-rule="evenodd" d="M37.3414 9.10212V7.65066C37.3414 7.43099 37.5082 7.28362 37.7084 7.28362H44.2066C44.4152 7.28362 44.582 7.43377 44.582 7.65066V8.89358C44.5793 9.10212 44.4041 9.37462 44.0926 9.80561L40.7254 14.6132C41.9766 14.5827 43.2974 14.769 44.4319 15.4085C44.6877 15.5531 44.7572 15.7644 44.7767 15.9729V17.5217C44.7767 17.7331 44.5431 17.9805 44.2984 17.8526C42.2992 16.8043 39.6437 16.6903 37.4331 17.8637C37.2079 17.9861 36.9716 17.7414 36.9716 17.5301V16.0591C36.9716 15.8228 36.9743 15.4196 37.2107 15.0609L41.1119 9.46638H37.7168C37.5082 9.46638 37.3414 9.31901 37.3414 9.10212Z" fill="#4C4C4D"/>
    <path fill-rule="evenodd" clip-rule="evenodd" d="M13.6369 18.1585H11.6599C11.4708 18.1446 11.3207 18.0028 11.3068 17.8221V7.6757C11.3068 7.47272 11.4764 7.31145 11.6877 7.31145H13.5312C13.7231 7.31978 13.876 7.46716 13.8899 7.65068V8.97702H13.9261C14.4071 7.69517 15.3108 7.09734 16.5287 7.09734C17.7661 7.09734 18.5391 7.69517 19.0952 8.97702C19.5734 7.69517 20.6606 7.09734 21.8257 7.09734C22.6543 7.09734 23.5608 7.43935 24.1141 8.20679C24.7398 9.06043 24.6119 10.3006 24.6119 11.3878L24.6091 17.7915C24.6091 17.9944 24.4395 18.1585 24.2281 18.1585H22.2539C22.0565 18.1446 21.898 17.9861 21.898 17.7915V12.4138C21.898 11.9856 21.9369 10.9179 21.8424 10.5119C21.695 9.83066 21.2529 9.63879 20.6801 9.63879C20.2018 9.63879 19.7013 9.95856 19.4984 10.4702C19.2954 10.9818 19.3148 11.8382 19.3148 12.4138V17.7915C19.3148 17.9944 19.1452 18.1585 18.9339 18.1585H16.9597C16.7595 18.1446 16.6038 17.9861 16.6038 17.7915L16.601 12.4138C16.601 11.2821 16.7873 9.61655 15.3831 9.61655C13.9622 9.61655 14.0178 11.2404 14.0178 12.4138V17.7915C14.0178 17.9944 13.8482 18.1585 13.6369 18.1585Z" fill="#4C4C4D"/>
    <path fill-rule="evenodd" clip-rule="evenodd" d="M50.1765 7.09734C53.11 7.09734 54.6977 9.61655 54.6977 12.8198C54.6977 15.9146 52.9432 18.3698 50.1765 18.3698C47.2958 18.3698 45.7276 15.8506 45.7276 12.7113C45.7276 9.5526 47.3153 7.09734 50.1765 7.09734ZM50.1932 9.16888C48.7361 9.16888 48.6444 11.1542 48.6444 12.3916C48.6444 13.6317 48.6249 16.2788 50.1765 16.2788C51.7086 16.2788 51.7809 14.1433 51.7809 12.842C51.7809 11.9856 51.7447 10.9624 51.4861 10.1504C51.2637 9.44415 50.8216 9.16888 50.1932 9.16888Z" fill="#4C4C4D"/>
    <path fill-rule="evenodd" clip-rule="evenodd" d="M58.5016 18.1585H56.533C56.3356 18.1446 56.1771 17.9861 56.1771 17.7915L56.1743 7.64234C56.191 7.45604 56.355 7.31145 56.5552 7.31145H58.3876C58.56 7.31978 58.7018 7.43657 58.7408 7.59507V9.14663H58.7769C59.3302 7.75912 60.106 7.09734 61.4713 7.09734C62.3583 7.09734 63.2231 7.41711 63.7792 8.29299C64.2964 9.10492 64.2964 10.4702 64.2964 11.4517V17.8387C64.2741 18.0167 64.1101 18.1585 63.9154 18.1585H61.9329C61.7521 18.1446 61.602 18.0111 61.5825 17.8387V12.3276C61.5825 11.2182 61.7104 9.5943 60.3452 9.5943C59.8641 9.5943 59.422 9.91685 59.2023 10.4062C58.9243 11.0263 58.8881 11.6436 58.8881 12.3276V17.7915C58.8854 17.9944 58.713 18.1585 58.5016 18.1585Z" fill="#4C4C4D"/>
    <path fill-rule="evenodd" clip-rule="evenodd" d="M32.1612 13.3119C32.1612 14.0821 32.1806 14.7245 31.7914 15.4085C31.4772 15.9646 30.9766 16.3066 30.4233 16.3066C29.6642 16.3066 29.2193 15.7283 29.2193 14.8746C29.2193 13.1896 30.7292 12.8837 32.1612 12.8837V13.3119ZM34.1549 18.1307C34.0242 18.2475 33.8351 18.2558 33.6877 18.178C33.0315 17.633 32.9119 17.3799 32.5532 16.86C31.4688 17.9666 30.6986 18.2975 29.2944 18.2975C27.6288 18.2975 26.3359 17.2715 26.3359 15.2166C26.3359 13.6122 27.2034 12.5195 28.4435 11.9856C29.5168 11.5129 31.0156 11.4295 32.1612 11.2988V11.043C32.1612 10.5731 32.1973 10.0169 31.9193 9.61097C31.6801 9.24671 31.2186 9.09656 30.8098 9.09656C30.0563 9.09656 29.3862 9.48306 29.2221 10.2839C29.1887 10.4618 29.058 10.637 28.8773 10.6453L26.9615 10.4396C26.8002 10.4034 26.6195 10.2727 26.6667 10.0253C27.1061 7.70071 29.2082 7 31.0879 7C32.0499 7 33.3068 7.25581 34.0659 7.98433C35.028 8.88246 34.9362 10.0809 34.9362 11.385V14.4659C34.9362 15.3918 35.3199 15.7978 35.6814 16.2983C35.8065 16.4762 35.8343 16.6903 35.673 16.8238C35.2699 17.1603 34.5525 17.7859 34.1576 18.1362L34.1549 18.1307Z" fill="#4C4C4D"/>
    <path fill-rule="evenodd" clip-rule="evenodd" d="M6.24329 13.3119C6.24329 14.0821 6.26275 14.7245 5.87347 15.4085C5.55926 15.9646 5.06154 16.3066 4.50542 16.3066C3.74633 16.3066 3.30421 15.7282 3.30421 14.8746C3.30421 13.1896 4.81407 12.8837 6.24329 12.8837V13.3119ZM8.23697 18.1307C8.10628 18.2475 7.9172 18.2558 7.76983 18.1779C7.11361 17.633 6.99683 17.3799 6.63535 16.8599C5.55092 17.9666 4.78348 18.2975 3.37651 18.2975C1.71372 18.2975 0.417969 17.2715 0.417969 15.2166C0.417969 13.6122 1.28829 12.5195 2.52565 11.9856C3.59895 11.5129 5.09769 11.4295 6.24329 11.2988V11.043C6.24329 10.573 6.27944 10.0169 6.00416 9.61097C5.76225 9.24671 5.30067 9.09656 4.89471 9.09656C4.14117 9.09656 3.46827 9.48306 3.30421 10.2839C3.27085 10.4618 3.14016 10.637 2.9622 10.6453L1.0436 10.4396C0.882326 10.4034 0.704368 10.2727 0.748858 10.0253C1.19097 7.70071 3.29031 7 5.16998 7C6.13206 7 7.38889 7.25581 8.14799 7.98433C9.11007 8.88245 9.01831 10.0809 9.01831 11.385V14.4659C9.01831 15.3918 9.40203 15.7978 9.76351 16.2983C9.89141 16.4762 9.91922 16.6903 9.75794 16.8238C9.35476 17.1603 8.63737 17.7859 8.24253 18.1362L8.23697 18.1307Z" fill="#4C4C4D"/>
  </g>
  <defs>
    <clipPath id="clip0_205_583">
      <rect width="64.1666" height="28" fill="white" transform="translate(0.417969)"/>
    </clipPath>
  </defs>
</svg>