<svg xmlns="http://www.w3.org/2000/svg" width="66" height="28" viewBox="0 0 66 28" fill="none">
  <g clip-path="url(#clip0_205_603)">
    <path d="M9.5991 22.204C8.62502 22.3751 7.6338 22.4264 6.60843 22.563L3.48091 13.4029V22.9561C2.50683 23.0586 1.61818 23.1953 0.695312 23.332V5.83203H3.29304L6.84765 15.7614V5.83203H9.5991V22.204ZM14.9824 12.2407C16.0421 12.2407 17.6656 12.1894 18.6397 12.1894V14.9238C17.4262 14.9238 16.0079 14.9238 14.9824 14.975V19.0425C16.5889 18.94 18.1954 18.8031 19.8188 18.7519V21.3835L12.248 21.9818V5.83203H19.8188V8.56641H14.9824V12.2407ZM29.9873 8.56647H27.1504V21.1446C26.2275 21.1446 25.3047 21.1446 24.4161 21.1787V8.56647H21.5793V5.83203H29.9874L29.9873 8.56647ZM34.4306 12.0528H38.1733V14.7871H34.4306V20.9908H31.7473V5.83203H39.3867V8.56641H34.4306V12.0528ZM43.83 18.5981C45.3853 18.6322 46.9574 18.7521 48.4785 18.8374V21.5376C46.0347 21.3837 43.5908 21.2301 41.0957 21.1787V5.83203H43.83V18.5981ZM50.7856 21.7256C51.6572 21.7769 52.58 21.8282 53.4687 21.9306V5.83203H50.7856V21.7256ZM65.4488 5.83203L61.9795 14.1548L65.4488 23.332C64.4233 23.1953 63.3979 23.0073 62.3725 22.8364L60.4072 17.7779L58.4079 22.4264C57.4165 22.2553 56.4595 22.204 55.4685 22.0673L58.9889 14.0522L55.8101 5.83203H58.7494L60.5439 10.4292L62.458 5.83203H65.4488V5.83203Z" fill="#4C4C4D"/>
  </g>
  <defs>
    <clipPath id="clip0_205_603">
      <rect width="64.75" height="28" fill="white" transform="translate(0.695312)"/>
    </clipPath>
  </defs>
</svg>