<svg xmlns="http://www.w3.org/2000/svg" width="76" height="28" viewBox="0 0 76 28" fill="none">
  <g clip-path="url(#clip0_205_599)">
    <path d="M26.8003 20.2851V11.7946H26.9516L33.1318 20.2851H35.0767V7.81675H32.9157V16.2858H32.7645L26.5843 7.81675H24.6394V20.2851H26.8003ZM41.192 20.4776C44.0445 20.4776 45.7948 18.6383 45.7948 15.5587C45.7948 12.5004 44.0445 10.6398 41.192 10.6398C38.3612 10.6398 36.5893 12.5004 36.5893 15.5587C36.6109 18.6383 38.3396 20.4776 41.192 20.4776ZM41.192 18.6811C39.6794 18.6811 38.815 17.5476 38.815 15.5587C38.815 13.5911 39.6794 12.4362 41.192 12.4362C42.7047 12.4362 43.5691 13.5911 43.5691 15.5587C43.5691 17.5476 42.7047 18.6811 41.192 18.6811ZM47.7612 8.52251V10.8964H46.2486V12.6073H47.7612V17.7615C47.7612 19.6007 48.6256 20.3279 50.8297 20.3279C51.2403 20.3279 51.6509 20.2851 51.975 20.2209V18.5528C51.7157 18.5742 51.5428 18.5956 51.2403 18.5956C50.3327 18.5956 49.9222 18.1892 49.9222 17.2482V12.6073H51.975V10.8964H49.9222V8.52251H47.7612ZM53.2716 20.2851H55.4325V10.8323H53.2716V20.2851ZM54.352 9.27103C55.0651 9.27103 55.6486 8.6936 55.6486 7.98784C55.6486 7.2607 55.0651 6.68327 54.352 6.68327C53.6389 6.68327 53.0555 7.2607 53.0555 7.98784C53.0555 8.6936 53.6389 9.27103 54.352 9.27103ZM61.3534 20.4776C64.2058 20.4776 65.9562 18.6383 65.9562 15.5587C65.9562 12.5004 64.2058 10.6398 61.3534 10.6398C58.5226 10.6398 56.7506 12.5004 56.7506 15.5587C56.7506 18.6383 58.4794 20.4776 61.3534 20.4776ZM61.3534 18.6811C59.8408 18.6811 58.9764 17.5476 58.9764 15.5587C58.9764 13.5911 59.8408 12.4362 61.3534 12.4362C62.8444 12.4362 63.7304 13.5911 63.7304 15.5587C63.7088 17.5476 62.8444 18.6811 61.3534 18.6811ZM67.2311 20.2851H69.392V14.7888C69.392 13.3986 70.2132 12.5218 71.4881 12.5218C72.8063 12.5218 73.4113 13.2489 73.4113 14.6818V20.2851H75.5722V14.1685C75.5722 11.9016 74.4053 10.6398 72.2876 10.6398C70.8614 10.6398 69.9106 11.2814 69.4568 12.3507H69.3056V10.8323H67.2095C67.2311 10.8323 67.2311 20.2851 67.2311 20.2851Z" fill="#4C4C4D"/>
    <path fill-rule="evenodd" clip-rule="evenodd" d="M3.91992 7.01872C4.54886 7.52611 4.77635 7.48605 5.95393 7.40594L17.0473 6.73833C17.2882 6.73833 17.0875 6.49799 17.0072 6.47128L15.1605 5.14942C14.8126 4.88238 14.3309 4.56192 13.4343 4.64204L2.70219 5.42981C2.31412 5.46987 2.23383 5.67015 2.39441 5.81703L3.91992 7.01872ZM4.58901 9.59569V21.2388C4.58901 21.8663 4.89678 22.0933 5.60601 22.0533L17.7967 21.3456C18.5059 21.3056 18.5862 20.8783 18.5862 20.3709V8.80792C18.5862 8.30053 18.3855 8.02014 17.9573 8.06019L5.21794 8.80792C4.74959 8.84797 4.58901 9.08831 4.58901 9.59569ZM16.6191 10.2232C16.6994 10.5704 16.6191 10.9309 16.2712 10.971L15.6824 11.0911V19.6899C15.1739 19.957 14.7055 20.1172 14.3041 20.1172C13.6752 20.1172 13.5146 19.9169 13.0462 19.3294L9.20568 13.3076V19.1291L10.4234 19.3962C10.4234 19.3962 10.4234 20.1039 9.44655 20.1039L6.74345 20.2641C6.66316 20.1039 6.74345 19.7166 7.01109 19.6365L7.72031 19.4362V11.7454L6.74345 11.6653C6.66316 11.3181 6.86389 10.8107 7.41254 10.7707L10.3164 10.5704L14.3175 16.659V11.2781L13.3005 11.1579C13.2202 10.7306 13.5413 10.4102 13.9294 10.3701L16.6191 10.2232ZM1.80562 4.36164L12.9793 3.54716C14.3442 3.42699 14.7055 3.5071 15.562 4.13465L19.1215 6.63151C19.7103 7.05878 19.911 7.17895 19.911 7.64628V21.359C19.911 22.2135 19.6032 22.7209 18.5059 22.801L5.5391 23.5888C4.70944 23.6288 4.32137 23.5087 3.89316 22.9612L1.25697 19.5564C0.788615 18.9289 0.587891 18.4615 0.587891 17.9141V5.72356C0.587891 5.0159 0.90905 4.44175 1.80562 4.36164Z" fill="#4C4C4D"/>
  </g>
  <defs>
    <clipPath id="clip0_205_599">
      <rect width="75.25" height="28" fill="white" transform="translate(0.587891)"/>
    </clipPath>
  </defs>
</svg>