<svg xmlns="http://www.w3.org/2000/svg" width="83" height="28" viewBox="0 0 83 28" fill="none">
  <g clip-path="url(#clip0_205_575)">
    <path d="M13.2483 1.7959C6.48281 1.7959 0.998047 7.28051 0.998047 14.046C0.998047 20.8117 6.48281 26.2959 13.2483 26.2959C20.0145 26.2959 25.4987 20.8117 25.4987 14.046C25.4987 7.28094 20.0145 1.79648 13.2481 1.79648L13.2483 1.7959ZM18.8662 19.464C18.6467 19.8239 18.1757 19.938 17.8158 19.7171C14.9396 17.9602 11.3188 17.5623 7.05463 18.5366C6.64372 18.6302 6.23412 18.3727 6.1405 17.9617C6.04644 17.5506 6.30288 17.141 6.71481 17.0474C11.3813 15.9813 15.384 16.4403 18.6131 18.4137C18.9729 18.6346 19.087 19.1042 18.8662 19.464ZM20.3656 16.1285C20.0891 16.5778 19.501 16.7197 19.0519 16.4433C15.7591 14.4193 10.7397 13.8331 6.84486 15.0154C6.33974 15.168 5.80624 14.8833 5.65294 14.3791C5.5008 13.8739 5.78562 13.3415 6.28986 13.1879C10.7388 11.838 16.2696 12.4919 20.0511 14.8156C20.5001 15.092 20.642 15.6801 20.3656 16.1286V16.1285ZM20.4943 12.6551C16.5461 10.31 10.0321 10.0944 6.2625 11.2385C5.65718 11.4221 5.01704 11.0804 4.8336 10.475C4.65016 9.86943 4.99159 9.22973 5.59735 9.04571C9.92457 7.73208 17.1181 7.98589 21.6637 10.6844C22.2093 11.0075 22.3878 11.7107 22.0645 12.2544C21.7427 12.7989 21.0376 12.9784 20.4949 12.6551H20.4943ZM34.3269 13.1045C32.2116 12.6001 31.8357 12.2461 31.8357 11.5022C31.8357 10.7995 32.4969 10.3266 33.4813 10.3266C34.4351 10.3266 35.3801 10.6857 36.3719 11.425C36.4012 11.4474 36.4392 11.4563 36.4758 11.4505C36.5138 11.4449 36.546 11.4246 36.5679 11.394L37.6007 9.93818C37.6431 9.87821 37.6314 9.79556 37.5744 9.74977C36.3939 8.80288 35.0656 8.34252 33.5121 8.34252C31.2286 8.34252 29.6326 9.71305 29.6326 11.674C29.6326 13.7768 31.0092 14.5214 33.3877 15.0961C35.4108 15.5623 35.7531 15.9529 35.7531 16.651C35.7531 17.4248 35.0627 17.9061 33.9509 17.9061C32.7163 17.9061 31.7084 17.4892 30.582 16.5149C30.5542 16.4901 30.5162 16.4798 30.4811 16.4813C30.443 16.4842 30.4094 16.5018 30.386 16.5296L29.2274 17.9076C29.1791 17.9661 29.185 18.0509 29.2406 18.1007C30.5513 19.2709 32.1633 19.8882 33.9041 19.8882C36.3646 19.8882 37.9547 18.5439 37.9547 16.4623C37.9591 14.7059 36.9073 13.7331 34.3313 13.1064L34.3269 13.1045ZM43.5223 11.0185C42.4559 11.0185 41.5811 11.4386 40.8584 12.2995V11.3305C40.8584 11.254 40.797 11.1917 40.7209 11.1917H38.8266C38.7505 11.1917 38.689 11.254 38.689 11.3305V22.0971C38.689 22.1732 38.7505 22.2361 38.8266 22.2361H40.7209C40.797 22.2361 40.8584 22.1732 40.8584 22.0971V18.699C41.5811 19.5079 42.4559 19.9043 43.5223 19.9043C45.5044 19.9043 47.5114 18.3786 47.5114 15.4618C47.5143 12.5445 45.5073 11.0183 43.5237 11.0183L43.5223 11.0185ZM45.3084 15.4618C45.3084 16.9465 44.3941 17.9836 43.0834 17.9836C41.7888 17.9836 40.8116 16.8997 40.8116 15.4618C40.8116 14.0239 41.7888 12.9402 43.0834 12.9402C44.3722 12.9401 45.3084 14.0003 45.3084 15.4617V15.4618ZM52.6533 11.0185C50.1006 11.0185 48.1009 12.984 48.1009 15.4936C48.1009 17.9763 50.0875 19.9204 52.6226 19.9204C55.184 19.9204 57.1895 17.9617 57.1895 15.4618C57.1895 12.9705 55.1972 11.0188 52.6533 11.0188V11.0185ZM52.6533 17.9983C51.2958 17.9983 50.2718 16.907 50.2718 15.4611C50.2718 14.0087 51.2607 12.9547 52.6226 12.9547C53.9889 12.9547 55.0187 14.0455 55.0187 15.4929C55.0187 16.945 54.024 17.9983 52.6533 17.9983ZM62.6401 11.1917H60.5555V9.06092C60.5555 8.98456 60.4941 8.92225 60.418 8.92225H58.5236C58.4476 8.92225 58.3847 8.98456 58.3847 9.06092V11.1917H57.4748C57.3987 11.1917 57.3373 11.254 57.3373 11.3305V12.9582C57.3373 13.0346 57.3987 13.097 57.4748 13.097H58.3847V17.3093C58.3847 19.0105 59.2317 19.8736 60.9037 19.8736C61.5824 19.8736 62.1456 19.7332 62.6766 19.4318C62.7205 19.4084 62.7469 19.3616 62.7469 19.3119V17.7613C62.7469 17.7145 62.722 17.6691 62.681 17.6443C62.6401 17.6179 62.5889 17.6165 62.5464 17.6384C62.1822 17.8213 61.8297 17.9061 61.4347 17.9061C60.8276 17.9061 60.5555 17.6296 60.5555 17.0123V13.0978H62.6401C62.7161 13.0978 62.7776 13.0354 62.7776 12.9589V11.3314C62.7805 11.2549 62.7191 11.1926 62.6415 11.1926L62.6401 11.1917ZM69.9016 11.2V10.9383C69.9016 10.1684 70.1971 9.82511 70.8583 9.82511C71.2533 9.82511 71.5707 9.90352 71.9261 10.022C71.97 10.0358 72.0154 10.0289 72.0505 10.0027C72.0871 9.97651 72.1075 9.93453 72.1075 9.89006V8.2941C72.1075 8.2331 72.0695 8.17913 72.0095 8.16113C71.635 8.04952 71.1552 7.93498 70.4355 7.93498C68.6874 7.93498 67.7615 8.92005 67.7615 10.7827V11.1835H66.8516C66.7755 11.1835 66.7126 11.2458 66.7126 11.3222V12.9582C66.7126 13.0346 66.7755 13.097 66.8516 13.097H67.7615V19.5927C67.7615 19.6703 67.8244 19.7317 67.9004 19.7317H69.7933C69.8709 19.7317 69.9323 19.6703 69.9323 19.5927V13.0975H71.7009L74.41 19.5927C74.1029 20.2744 73.8 20.4105 73.3875 20.4105C73.054 20.4105 72.7015 20.311 72.3431 20.1135C72.3094 20.096 72.2685 20.093 72.2333 20.1033C72.1968 20.1164 72.1661 20.1428 72.1514 20.1779L71.5092 21.5866C71.4785 21.6539 71.5049 21.7314 71.5692 21.7665C72.2392 22.1293 72.8434 22.2844 73.5909 22.2844C74.9893 22.2844 75.7632 21.6319 76.4434 19.8795L79.7289 11.3896C79.7465 11.3469 79.7406 11.2986 79.7143 11.2607C79.6894 11.2231 79.647 11.2005 79.6017 11.2005H77.6297C77.5698 11.2005 77.5171 11.2381 77.4981 11.2935L75.4779 17.062L73.2661 11.2897C73.2456 11.236 73.1944 11.2005 73.1374 11.2005H69.9016V11.2ZM65.6915 11.1917H63.7972C63.7211 11.1917 63.6582 11.254 63.6582 11.3305V19.5927C63.6582 19.6703 63.7211 19.7317 63.7972 19.7317H65.6915C65.7676 19.7317 65.8305 19.6703 65.8305 19.5927V11.3311C65.8305 11.2546 65.7691 11.1923 65.6915 11.1923V11.1917ZM64.7553 7.42942C64.0049 7.42942 63.3964 8.03679 63.3964 8.78708C63.3964 9.53781 64.0049 10.1459 64.7553 10.1459C65.5058 10.1459 66.1128 9.53781 66.1128 8.78708C66.1128 8.03694 65.5043 7.42942 64.7553 7.42942ZM81.3468 13.8483C80.5978 13.8483 80.0142 13.2464 80.0142 12.5154C80.0142 11.7844 80.6052 11.1756 81.3541 11.1756C82.1031 11.1756 82.6868 11.7774 82.6868 12.5078C82.6868 13.2388 82.0958 13.8483 81.3468 13.8483ZM81.3541 11.3081C80.671 11.3081 80.1546 11.8508 80.1546 12.5154C80.1546 13.1797 80.6681 13.7151 81.3468 13.7151C82.03 13.7151 82.5463 13.1728 82.5463 12.5078C82.5463 11.8435 82.0329 11.3081 81.3541 11.3081ZM81.6496 12.6449L82.027 13.1727H81.7081L81.3688 12.6885H81.0777V13.1727H80.8114V11.7736H81.4346C81.7608 11.7736 81.9744 11.9399 81.9744 12.2199C81.9758 12.4493 81.8427 12.5894 81.6511 12.6449H81.6496ZM81.4243 12.0137H81.0777V12.4562H81.4243C81.597 12.4562 81.7008 12.3715 81.7008 12.2347C81.7008 12.0907 81.597 12.0137 81.4243 12.0137Z" fill="#4C4C4D"/>
  </g>
  <defs>
    <clipPath id="clip0_205_575">
      <rect width="81.6667" height="28" fill="white" transform="translate(0.953125)"/>
    </clipPath>
  </defs>
</svg>