<svg xmlns="http://www.w3.org/2000/svg" width="57" height="28" viewBox="0 0 57 28" fill="none">
  <g clip-path="url(#clip0_205_571)">
    <path d="M0.927734 20.6471L6.67615 11.7024H1.60871C1.56577 11.4447 1.54736 11.1625 1.54736 10.8496C1.54736 10.549 1.56577 10.2729 1.60871 10.0214H9.8111L9.91539 10.2975L4.12403 19.2606H9.55343C9.59638 19.5428 9.61478 19.8373 9.61478 20.1317C9.61478 20.4139 9.59638 20.6839 9.55343 20.9415H1.03203L0.927734 20.6471Z" fill="#4C4C4D"/>
    <path d="M17.5166 13.7454C17.5166 12.9049 17.3019 12.3282 16.8786 11.9969C16.4553 11.6718 15.8356 11.5062 15.0258 11.5062C14.5289 11.5062 14.0626 11.543 13.6332 11.6227C13.1976 11.7025 12.7804 11.8006 12.3633 11.9295C12.0933 11.4632 11.9584 10.8988 11.9584 10.2485C12.443 10.0951 12.9706 9.97242 13.5534 9.88653C14.1363 9.80065 14.6945 9.7577 15.2344 9.7577C16.6516 9.7577 17.7313 10.0829 18.4736 10.727C19.2098 11.3712 19.5841 12.408 19.5841 13.8252V20.6595C19.0871 20.7699 18.4859 20.8926 17.7743 21.0091C17.0626 21.1318 16.3387 21.1871 15.6025 21.1871C14.9093 21.1871 14.2774 21.1257 13.7191 20.9969C13.1608 20.868 12.6823 20.6656 12.2896 20.3773C11.897 20.095 11.5964 19.7331 11.3817 19.2914C11.167 18.8497 11.0627 18.3159 11.0627 17.6963C11.0627 17.0889 11.1854 16.5491 11.4369 16.0889C11.6823 15.6288 12.0197 15.2423 12.4492 14.9417C12.8725 14.635 13.3633 14.408 13.9215 14.2607C14.4737 14.1135 15.0565 14.0337 15.67 14.0337C16.124 14.0337 16.4982 14.046 16.7865 14.0644C17.0749 14.0828 17.3203 14.1135 17.5227 14.138V13.7454H17.5166ZM17.5166 15.8129C17.3019 15.7822 17.0319 15.7577 16.7068 15.727C16.3816 15.6963 16.1056 15.684 15.8786 15.684C14.9951 15.684 14.3264 15.8497 13.8663 16.1748C13.4062 16.5 13.1731 16.9969 13.1731 17.6656C13.1731 18.0889 13.2528 18.4263 13.4062 18.6656C13.5596 18.9049 13.7559 19.0889 13.989 19.2178C14.2221 19.3466 14.4798 19.4263 14.7682 19.4509C15.0504 19.4816 15.3203 19.4938 15.578 19.4938C15.9031 19.4938 16.2405 19.4754 16.5902 19.4386C16.9399 19.4018 17.2467 19.3527 17.5166 19.2791V15.8129Z" fill="#4C4C4D"/>
    <path d="M21.8846 10.0218C22.0257 9.99117 22.173 9.97277 22.3202 9.9605C22.4674 9.94823 22.6208 9.94209 22.7803 9.94209C22.9214 9.94209 23.0687 9.94823 23.2282 9.9605C23.3815 9.97277 23.5349 9.99731 23.676 10.0218C23.6883 10.0525 23.7067 10.1384 23.7312 10.2856C23.7496 10.4329 23.7742 10.5924 23.7926 10.7642C23.811 10.936 23.8355 11.0955 23.8539 11.255C23.8723 11.4145 23.8846 11.5126 23.8846 11.5556C24.0257 11.3286 24.1975 11.1077 24.3938 10.893C24.5901 10.6783 24.8294 10.4881 25.1055 10.3163C25.3815 10.1445 25.6944 10.0096 26.0441 9.91142C26.3938 9.81326 26.7803 9.76418 27.2036 9.76418C27.8416 9.76418 28.4367 9.86847 28.9827 10.0832C29.5287 10.2979 29.995 10.6231 30.3876 11.0709C30.7803 11.5188 31.0809 12.0893 31.3017 12.7764C31.5226 13.4635 31.633 14.2795 31.633 15.2181C31.633 17.0954 31.1238 18.5617 30.1115 19.6169C29.0931 20.6721 27.6576 21.2058 25.7987 21.2058C25.4858 21.2058 25.1668 21.1874 24.8417 21.1445C24.5165 21.1015 24.2282 21.0463 23.9889 20.9727V25.9788C23.8171 26.0095 23.6392 26.0279 23.4429 26.0401C23.2527 26.0524 23.0748 26.0585 22.9214 26.0585C22.768 26.0585 22.5901 26.0524 22.4 26.0401C22.2098 26.0279 22.0319 26.0033 21.8785 25.9788V10.0218H21.8846ZM23.995 19.1567C24.265 19.2549 24.541 19.3285 24.8232 19.3715C25.1054 19.4144 25.4735 19.4328 25.9337 19.4328C26.4429 19.4328 26.9153 19.3531 27.3386 19.1874C27.7619 19.0218 28.13 18.7702 28.4367 18.4328C28.7435 18.0893 28.9827 17.6598 29.1606 17.1445C29.3385 16.6292 29.4244 16.0095 29.4244 15.304C29.4244 14.1691 29.2158 13.2672 28.7987 12.5985C28.3815 11.9298 27.6944 11.5985 26.7435 11.5985C26.3876 11.5985 26.0502 11.6599 25.7189 11.7887C25.3938 11.9175 25.0993 12.1077 24.8478 12.3654C24.5901 12.6231 24.3877 12.9421 24.2282 13.3347C24.0686 13.7273 23.995 14.1875 23.995 14.7273V19.1567Z" fill="#4C4C4D"/>
    <path d="M34.2587 11.6778H32.8722C32.8416 11.5612 32.8232 11.4324 32.8109 11.2852C32.7986 11.1379 32.7925 10.9907 32.7925 10.8496C32.7925 10.7085 32.7986 10.5613 32.8109 10.414C32.8232 10.2668 32.8477 10.1318 32.8722 10.0214H36.3262V20.9477C36.1728 20.9784 35.9949 20.9968 35.8047 21.009C35.6146 21.0213 35.4366 21.0274 35.2833 21.0274C35.1422 21.0274 34.9765 21.0213 34.7802 21.009C34.59 20.9968 34.4121 20.9722 34.2587 20.9477V11.6778Z" fill="#4C4C4D"/>
    <path d="M40.8599 16.0032C40.8906 17.1934 41.1973 18.0707 41.7863 18.6228C42.3752 19.175 43.2464 19.451 44.3936 19.451C45.3997 19.451 46.3629 19.2731 47.2709 18.9173C47.3875 19.132 47.4795 19.3897 47.547 19.6964C47.6206 20.0032 47.6574 20.3038 47.6758 20.6044C47.2095 20.8007 46.6942 20.9541 46.1298 21.0522C45.5715 21.1504 44.9458 21.1995 44.2648 21.1995C43.2709 21.1995 42.4182 21.0584 41.7065 20.7823C40.9949 20.5062 40.4121 20.1136 39.9519 19.6105C39.4918 19.1075 39.1544 18.5124 38.9397 17.8191C38.725 17.132 38.6207 16.3774 38.6207 15.5492C38.6207 14.7394 38.725 13.9848 38.9274 13.2793C39.1299 12.5738 39.4489 11.9664 39.8722 11.445C40.2955 10.9296 40.8354 10.5125 41.4795 10.2118C42.1237 9.90509 42.8906 9.75172 43.7679 9.75172C44.5225 9.75172 45.1789 9.88055 45.7494 10.1382C46.32 10.3959 46.7924 10.7456 47.1789 11.1934C47.5592 11.6413 47.8537 12.175 48.05 12.7885C48.2463 13.4081 48.3506 14.0768 48.3506 14.8008C48.3506 14.9971 48.3445 15.2118 48.3261 15.4265C48.3138 15.6474 48.2954 15.8376 48.2832 15.9909H40.8599V16.0032ZM46.2709 14.4265C46.2709 14.0278 46.2157 13.6474 46.1114 13.2854C46.0071 12.9235 45.8476 12.6106 45.6451 12.3407C45.4366 12.0707 45.1789 11.856 44.8599 11.6904C44.5409 11.5247 44.1605 11.445 43.7188 11.445C42.8538 11.445 42.1912 11.7088 41.7249 12.2302C41.2648 12.7578 40.9826 13.4879 40.8844 14.4265H46.2709Z" fill="#4C4C4D"/>
    <path d="M50.682 10.0214C50.8353 9.99071 50.9887 9.97231 51.1298 9.96004C51.2709 9.94777 51.4181 9.94163 51.5777 9.94163C51.731 9.94163 51.8905 9.94777 52.0439 9.96004C52.1973 9.97231 52.3445 9.99685 52.4672 10.0214C52.5102 10.2361 52.5531 10.5122 52.5961 10.8619C52.639 11.2116 52.6574 11.506 52.6574 11.7453C52.958 11.2606 53.3506 10.8435 53.8414 10.4876C54.3322 10.1318 54.958 9.9539 55.7249 9.9539C55.8414 9.9539 55.958 9.96004 56.0746 9.96617C56.1972 9.97231 56.2954 9.98458 56.3813 9.99685C56.412 10.1257 56.4304 10.2606 56.4426 10.4017C56.4549 10.5429 56.4611 10.6901 56.4611 10.8496C56.4611 11.0214 56.4488 11.1993 56.4304 11.3833C56.412 11.5674 56.3813 11.7453 56.3568 11.9171C56.2402 11.8864 56.1236 11.8741 56.0071 11.8741C55.8844 11.8741 55.7923 11.8741 55.7187 11.8741C55.3384 11.8741 54.9703 11.9293 54.6206 12.0336C54.2709 12.1379 53.958 12.3281 53.6819 12.5981C53.4059 12.868 53.185 13.2361 53.0194 13.7085C52.8537 14.1747 52.774 14.7821 52.774 15.5183V20.9477C52.6206 20.9784 52.4427 20.9968 52.2525 21.009C52.0623 21.0213 51.8844 21.0274 51.731 21.0274C51.5777 21.0274 51.3997 21.0213 51.2096 21.009C51.0194 20.9968 50.8353 20.9722 50.6636 20.9477V10.0214H50.682Z" fill="#4C4C4D"/>
    <path d="M38.3322 3.59222H36.2709L37.731 2.13211C37.6145 1.9726 37.4856 1.81923 37.3507 1.67813C37.2096 1.53702 37.0623 1.40819 36.8967 1.29776L35.4366 2.75787V0.69654C35.2464 0.665866 35.0501 0.647461 34.8476 0.647461H34.8415C34.639 0.647461 34.4427 0.665866 34.2525 0.69654V2.75787L32.7924 1.29776C32.6329 1.41433 32.4795 1.54316 32.3384 1.67813C32.1973 1.81923 32.0746 1.96647 31.9581 2.13211L33.4243 3.59222H31.363C31.363 3.59222 31.3139 3.97872 31.3139 4.18118C31.3139 4.38363 31.3323 4.57995 31.363 4.77013H33.4243L31.9642 6.23024C32.1912 6.54926 32.4734 6.83146 32.7985 7.06459L34.2587 5.60448V7.66581C34.4488 7.69649 34.6452 7.71489 34.8476 7.71489H34.8537C35.0562 7.71489 35.2525 7.69649 35.4427 7.66581V5.60448L36.9028 7.06459C37.0623 6.94803 37.2157 6.81919 37.3568 6.68423C37.4979 6.54312 37.6267 6.39588 37.7372 6.23024L36.277 4.77013H38.3384C38.3691 4.57995 38.3875 4.38363 38.3875 4.18118V4.17504C38.3813 3.97872 38.3691 3.78241 38.3322 3.59222ZM35.731 4.18731C35.731 4.45111 35.682 4.70265 35.5961 4.93577C35.3629 5.02166 35.1114 5.07074 34.8476 5.07074C34.5838 5.07074 34.3323 5.02166 34.0991 4.93577C34.0133 4.70265 33.9642 4.45111 33.9642 4.18731V4.18118C33.9642 3.91738 34.0133 3.66584 34.0991 3.43272C34.3323 3.34683 34.5838 3.29775 34.8476 3.29775C35.1114 3.29775 35.3629 3.34683 35.5961 3.43272C35.682 3.66584 35.731 3.91738 35.731 4.18731Z" fill="#4C4C4D"/>
  </g>
  <defs>
    <clipPath id="clip0_205_571">
      <rect width="56" height="28" fill="white" transform="translate(0.927734)"/>
    </clipPath>
  </defs>
</svg>