<svg xmlns="http://www.w3.org/2000/svg" width="58" height="28" viewBox="0 0 58 28" fill="none">
    <g clip-path="url(#clip0_205_579)">
    <path fill-rule="evenodd" clip-rule="evenodd" d="M46.5564 12.0164C46.7747 12.393 46.8461 12.8215 46.8697 13.3032L46.9007 13.9453V18.435L46.9324 19.0778C46.9957 20.1275 47.7698 20.9036 48.8276 20.9696L49.467 21.0013V13.9453L49.4986 13.3032C49.5249 12.8269 49.5957 12.3903 49.8173 12.011C50.0432 11.6219 50.3674 11.2991 50.7575 11.075C51.1476 10.8509 51.5897 10.7333 52.0396 10.7342C52.4895 10.735 52.9312 10.8541 53.3205 11.0797C53.7097 11.3052 54.0328 11.6292 54.2572 12.019C54.4755 12.3957 54.5436 12.8322 54.5699 13.3032L54.6015 13.9432V18.435L54.6332 19.0778C54.6992 20.1329 55.4673 20.909 56.5284 20.9696L57.1678 21.0013V13.3032C57.1678 11.942 56.6272 10.6364 55.6648 9.67371C54.7025 8.71098 53.3972 8.16985 52.0359 8.16932C51.3074 8.16855 50.587 8.32327 49.923 8.62314C49.259 8.92302 48.6667 9.36114 48.1855 9.90823C47.7042 9.36135 47.1118 8.92334 46.4479 8.62338C45.7839 8.32341 45.0637 8.16839 44.3351 8.16864C43.2693 8.16864 42.2802 8.49204 41.461 9.05057C40.9611 8.49271 39.8427 8.16864 39.2006 8.16864V21.0013L39.8427 20.9696C40.9166 20.8989 41.6927 20.1436 41.7345 19.0778L41.7689 18.435V13.9453L41.8005 13.3032C41.8275 12.8188 41.8949 12.393 42.1138 12.0137C42.3399 11.6248 42.664 11.3021 43.0538 11.0777C43.4435 10.8533 43.8854 10.7351 44.3351 10.7349C44.7852 10.735 45.2274 10.8535 45.6173 11.0784C46.0071 11.3033 46.331 11.6268 46.5564 12.0164ZM2.62681 20.9703L3.26888 21.0013H12.8932L12.8615 20.3613C12.7746 19.3062 12.0275 18.5354 10.969 18.4667L10.3269 18.435H4.55302L12.2511 10.7342L12.2195 10.0949C12.1696 9.02901 11.3908 8.25893 10.3269 8.20031L9.68487 8.17134L0.0605469 8.16864L0.0922125 8.81072C0.17643 9.85568 0.934383 10.6426 1.98406 10.7032L2.62681 10.7349H8.40073L0.702618 18.4357L0.734283 19.0778C0.797614 20.1356 1.56096 20.9016 2.62681 20.9696V20.9703ZM36.6815 10.047C37.2774 10.6428 37.7501 11.3502 38.0727 12.1287C38.3952 12.9072 38.5612 13.7416 38.5612 14.5843C38.5612 15.427 38.3952 16.2614 38.0727 17.0399C37.7501 17.8184 37.2774 18.5258 36.6815 19.1216C35.4775 20.3246 33.8452 21.0003 32.1432 21.0003C30.4412 21.0003 28.8089 20.3246 27.6049 19.1216C25.0993 16.616 25.0993 12.5526 27.6049 10.047C28.2003 9.45142 28.9072 8.97893 29.6851 8.65652C30.4631 8.33411 31.297 8.1681 32.1392 8.16797C32.9827 8.16738 33.818 8.3331 34.5974 8.65564C35.3769 8.97818 36.085 9.45122 36.6815 10.0477V10.047ZM34.8658 11.8641C35.5875 12.5863 35.9929 13.5656 35.9929 14.5867C35.9929 15.6077 35.5875 16.587 34.8658 17.3092C34.1435 18.0309 33.1642 18.4364 32.1432 18.4364C31.1222 18.4364 30.1429 18.0309 29.4206 17.3092C28.6989 16.587 28.2935 15.6077 28.2935 14.5867C28.2935 13.5656 28.6989 12.5863 29.4206 11.8641C30.1429 11.1424 31.1222 10.737 32.1432 10.737C33.1642 10.737 34.1435 11.1424 34.8658 11.8641ZM18.6725 8.16797C19.5147 8.16819 20.3486 8.33431 21.1266 8.65683C21.9046 8.97936 22.6114 9.45198 23.2068 10.0477C25.7131 12.5526 25.7131 16.6166 23.2068 19.1216C22.0028 20.3246 20.3704 21.0003 18.6685 21.0003C16.9665 21.0003 15.3341 20.3246 14.1302 19.1216C11.6246 16.616 11.6246 12.5526 14.1302 10.047C14.7256 9.45142 15.4324 8.97893 16.2104 8.65652C16.9884 8.33411 17.8223 8.1681 18.6644 8.16797H18.6725ZM21.391 11.8627C22.113 12.585 22.5185 13.5644 22.5185 14.5856C22.5185 15.6069 22.113 16.5863 21.391 17.3086C20.6688 18.0303 19.6895 18.4357 18.6685 18.4357C17.6474 18.4357 16.6682 18.0303 15.9459 17.3086C15.2242 16.5863 14.8188 15.607 14.8188 14.586C14.8188 13.5649 15.2242 12.5857 15.9459 11.8634C16.6682 11.1417 17.6474 10.7363 18.6685 10.7363C19.6895 10.7363 20.6688 11.1417 21.391 11.8634V11.8627Z" fill="#4C4C4D"/>
    </g>
    <defs>
    <clipPath id="clip0_205_579">
        <rect width="57.1666" height="28" fill="white" transform="translate(0.0605469)"/>
    </clipPath>
    </defs>
</svg>